<svg xmlns="http://www.w3.org/2000/svg" width="700" height="700" viewBox="0 0 700 700" role="img" aria-label="Минималистичная рамка реки Амур">
  <rect width="700" height="700" fill="#0f100d"/>
  <rect x="44" y="44" width="612" height="612" fill="#d8d2c4"/>
  <rect x="84" y="88" width="532" height="524" fill="#1c1e18"/>
  <path d="M84 338c80 54 162 58 250 12 110-58 190-48 282 42v220H84z" fill="#697466"/>
  <path d="M84 228c86 36 160 30 242-18 106-62 198-54 290 34v148c-88-70-170-78-270-22-96 54-176 54-262 7z" fill="#b9aa82"/>
  <path d="M120 192h450M136 214h418M154 236h382" stroke="#f1eee7" stroke-opacity=".36" stroke-width="5" stroke-linecap="round"/>
  <path d="M212 182l56-78 56 78M268 104v150M430 182l56-78 56 78M486 104v150" stroke="#f1eee7" stroke-opacity=".45" stroke-width="7" stroke-linecap="round" stroke-linejoin="round"/>
  <circle cx="502" cy="188" r="58" fill="#f1eee7"/>
  <path d="M126 132h152M126 564h246" stroke="#f1eee7" stroke-opacity=".42" stroke-width="7" stroke-linecap="round"/>
  <text x="126" y="612" fill="#f1eee7" fill-opacity=".52" font-family="Arial, sans-serif" font-size="18" letter-spacing="5">AMUR / KMS</text>
  <path d="M84 88h532v524H84z" fill="none" stroke="#f1eee7" stroke-opacity=".24" stroke-width="2"/>
</svg>
